<?xml version="1.0" standalone="no"?>
<!DOCTYPE svg PUBLIC "-//W3C//DTD SVG 20010904//EN"
 "http://www.w3.org/TR/2001/REC-SVG-20010904/DTD/svg10.dtd">
<svg version="1.0" xmlns="http://www.w3.org/2000/svg"
 width="958.000000pt" height="1280.000000pt" viewBox="0 0 958.000000 1280.000000"
 preserveAspectRatio="xMidYMid meet">
<g transform="translate(0.000000,1280.000000) scale(0.100000,-0.100000)"
fill="#000000" stroke="none">
<path d="M4295 12778 c-182 -93 -222 -340 -80 -495 l43 -48 118 2 c106 2 126
0 181 -22 71 -29 147 -32 208 -9 22 8 48 18 57 21 32 10 448 -172 569 -249 76
-48 110 -116 117 -227 l4 -77 -168 -99 c-438 -256 -861 -541 -1234 -831 -540
-420 -950 -813 -1713 -1641 -46 -49 -65 -63 -87 -63 -16 0 -40 -4 -53 -9 -27
-11 -155 -155 -517 -586 -135 -159 -290 -342 -345 -405 -151 -172 -201 -255
-263 -431 -57 -163 -77 -276 -77 -456 l0 -161 80 -157 80 -157 -1 -92 c0 -104
-20 -165 -82 -262 -21 -33 -74 -124 -117 -204 -43 -80 -159 -293 -258 -475
-279 -512 -467 -894 -529 -1075 -343 -1005 -270 -1822 227 -2530 215 -305 533
-613 921 -890 628 -448 1468 -844 2149 -1013 268 -67 382 -84 835 -128 220
-21 749 15 1055 72 926 172 2350 874 2979 1469 90 86 348 374 536 600 352 423
515 723 579 1066 23 123 61 435 68 568 8 135 -30 398 -84 575 -68 227 -167
400 -380 667 -293 367 -457 531 -695 697 -54 38 -100 72 -103 77 -3 4 8 48 24
97 43 126 55 210 48 332 -20 394 -296 723 -694 828 -83 22 -119 26 -238 26
-118 0 -155 -4 -235 -26 -422 -111 -700 -457 -700 -872 0 -358 216 -680 551
-821 276 -116 557 -105 835 33 l91 45 44 -25 c72 -43 120 -89 199 -193 120
-159 227 -291 341 -420 148 -167 213 -274 277 -454 55 -157 67 -235 67 -450 0
-201 -5 -248 -51 -433 -108 -436 -402 -949 -731 -1274 -318 -314 -682 -537
-1418 -868 -795 -358 -1154 -473 -1700 -544 -445 -58 -797 -53 -1155 19 -361
72 -671 188 -1170 437 -1263 629 -2052 1412 -2206 2189 -28 137 -26 395 4 544
68 340 177 661 309 910 155 293 353 542 691 870 257 251 290 264 579 240 200
-16 398 -9 506 19 171 45 373 166 517 310 288 290 574 675 834 1126 75 130 86
154 81 183 -6 30 5 48 133 220 568 764 940 1455 1237 2297 155 442 326 1097
341 1308 5 67 12 101 22 109 10 9 51 13 121 13 161 -1 183 -16 370 -253 40
-50 42 -55 35 -100 -16 -96 3 -194 50 -255 39 -51 44 -63 61 -155 18 -91 40
-123 107 -152 73 -32 197 -34 248 -4 70 41 117 151 107 256 -7 79 -31 115
-113 169 -38 26 -83 63 -99 83 -83 103 -108 125 -153 141 -42 14 -56 28 -137
137 -49 66 -123 156 -163 199 -101 108 -140 123 -322 123 l-134 1 -21 75 c-50
180 -100 236 -300 337 -77 38 -222 105 -323 148 l-184 78 -22 51 c-28 62 -73
103 -124 111 -20 4 -50 9 -67 12 -19 4 -56 33 -109 86 -58 58 -97 88 -143 108
-74 34 -85 35 -138 7z m814 -504 c244 -106 407 -190 452 -235 57 -57 119 -195
119 -266 0 -23 -41 -47 -100 -59 -24 -5 -26 -3 -37 70 -16 97 -52 168 -106
207 -53 40 -286 154 -442 217 -83 34 -119 53 -116 63 17 57 28 79 40 79 7 0
93 -34 190 -76z m578 -826 c-8 -135 -102 -535 -212 -898 -262 -865 -600 -1578
-1092 -2303 -168 -249 -396 -557 -412 -557 -13 0 -112 71 -117 84 -3 7 36 71
86 142 473 665 863 1355 1132 2004 183 441 317 874 418 1355 18 83 37 161 43
174 12 24 119 91 146 91 11 0 13 -17 8 -92z m-207 -44 c0 -29 -112 -497 -155
-646 -241 -842 -659 -1705 -1243 -2568 -173 -256 -271 -390 -287 -390 -27 0
-77 -56 -447 -508 -210 -257 -399 -485 -420 -507 -70 -77 -296 -177 -475 -211
-114 -21 -280 -15 -373 15 -162 51 -416 275 -495 436 -47 95 -65 173 -65 278
0 214 69 343 414 772 66 82 215 260 331 394 272 316 265 306 265 355 0 40 8
49 218 273 1122 1191 1802 1784 2596 2261 115 70 136 77 136 46z m-420 -148
c0 -2 -33 -28 -72 -57 -478 -350 -738 -565 -1168 -964 -229 -213 -723 -713
-1053 -1065 -137 -146 -257 -266 -268 -268 -22 -4 -119 88 -119 113 0 22 457
513 750 805 489 490 961 881 1470 1220 217 145 283 181 367 200 89 21 93 21
93 16z"/>
<path d="M4024 11014 c-305 -232 -1073 -918 -1051 -940 9 -10 42 13 173 117
354 283 993 864 972 884 -3 4 -46 -24 -94 -61z"/>
</g>
</svg>
